<svg xmlns="http://www.w3.org/2000/svg" viewBox="0 0 500 500"><path d="M81.068 423.58v-4.243c0-164.499 107.632-216.027 211.69-265.887 47.905-22.784 93.474-44.902 126.174-77.03-8.294 73.312-68.069 106.68-126.27 139.331-12.012 6.769-23.405 13.109-34.416 19.877a4.954 4.954 0 105.196 8.437c10.82-6.625 22.118-12.965 34.082-19.638 37.705-21.117 78.508-43.95 104.868-79.27C390.57 247.64 289.42 294.306 199.568 335.824l-21.164 9.533a4.88 4.88 0 002.097 9.533 4.767 4.767 0 002.098-.476 1955.418 1955.418 0 0121.116-9.534c57.63-26.598 119.788-55.246 161.353-99.242-4.766 51.48-37.561 93.284-97.384 124.41-46.189 23.739-107.25 41.328-186.616 53.53z" fill="#fff"/></svg>